<svg data-v-fde0c5aa="" xmlns="http://www.w3.org/2000/svg" viewBox="0 0 300 300" class="iconLeft"><!----><defs data-v-fde0c5aa=""><!----></defs><rect data-v-fde0c5aa="" fill="transparent" x="0" y="0" width="300px" height="300px" class="logo-background-square"></rect><defs data-v-fde0c5aa=""><linearGradient data-v-fde0c5aa="" gradientTransform="rotate(25)" id="55ceddae-b8a2-48f8-970f-55af405f561c" x1="0%" y1="0%" x2="100%" y2="0%"><stop data-v-fde0c5aa="" offset="0%" stop-color="#9E9E9E" stop-opacity="1"></stop><stop data-v-fde0c5aa="" offset="100%" stop-color="#9FC35D" stop-opacity="1"></stop></linearGradient></defs><g data-v-fde0c5aa="" id="f9859113-6303-4055-a194-c675ea34fb71" fill="url(#55ceddae-b8a2-48f8-970f-55af405f561c)" transform="matrix(3.0085079669952393,0,0,3.0085079669952393,96.15664905949377,122.87830013766893)"><path d="M4.96 4.19L4.96 4.19Q5.84 4.19 6.51 4.55L6.51 4.55L6.51 4.55Q7.18 4.91 7.55 5.58L7.55 5.58L7.55 5.58Q7.92 6.24 7.92 7.11L7.92 7.11L7.92 7.11Q7.92 7.97 7.55 8.62L7.55 8.62L7.55 8.62Q7.17 9.28 6.48 9.64L6.48 9.64L6.48 9.64Q5.78 10.00 4.87 10.00L4.87 10.00L2.65 10.00L2.65 10.00Q2.56 10.00 2.56 10.08L2.56 10.08L2.56 13.78L2.56 13.78Q2.56 14 2.34 14L2.34 14L1.16 14L1.16 14Q0.94 14 0.94 13.78L0.94 13.78L0.94 4.41L0.94 4.41Q0.94 4.19 1.16 4.19L1.16 4.19L4.96 4.19ZM4.72 8.68L4.72 8.68Q5.43 8.68 5.87 8.26L5.87 8.26L5.87 8.26Q6.30 7.84 6.30 7.15L6.30 7.15L6.30 7.15Q6.30 6.45 5.87 6.02L5.87 6.02L5.87 6.02Q5.43 5.59 4.72 5.59L4.72 5.59L2.65 5.59L2.65 5.59Q2.56 5.59 2.56 5.67L2.56 5.67L2.56 8.60L2.56 8.60Q2.56 8.68 2.65 8.68L2.65 8.68L4.72 8.68ZM9.44 14L9.44 14Q9.21 14 9.21 13.78L9.21 13.78L9.21 4.42L9.21 4.42Q9.21 4.20 9.44 4.20L9.44 4.20L10.61 4.20L10.61 4.20Q10.84 4.20 10.84 4.42L10.84 4.42L10.84 13.78L10.84 13.78Q10.84 14 10.61 14L10.61 14L9.44 14ZM15.33 6.73L15.33 6.73Q16.21 6.73 16.89 7.04L16.89 7.04L16.89 7.04Q17.57 7.35 17.93 7.89L17.93 7.89L17.93 7.89Q18.30 8.43 18.30 9.11L18.30 9.11L18.30 13.78L18.30 13.78Q18.30 14 18.07 14L18.07 14L16.90 14L16.90 14Q16.67 14 16.67 13.78L16.67 13.78L16.67 13.43L16.67 13.43Q16.67 13.37 16.65 13.36L16.65 13.36L16.65 13.36Q16.62 13.36 16.58 13.38L16.58 13.38L16.58 13.38Q15.82 14.11 14.56 14.11L14.56 14.11L14.56 14.11Q13.52 14.11 12.86 13.58L12.86 13.58L12.86 13.58Q12.19 13.05 12.19 12.00L12.19 12.00L12.19 12.00Q12.19 10.91 12.96 10.30L12.96 10.30L12.96 10.30Q13.72 9.69 15.11 9.69L15.11 9.69L16.59 9.69L16.59 9.69Q16.67 9.69 16.67 9.60L16.67 9.60L16.67 9.28L16.67 9.28Q16.67 8.74 16.34 8.43L16.34 8.43L16.34 8.43Q16.02 8.13 15.37 8.13L15.37 8.13L15.37 8.13Q14.88 8.13 14.56 8.31L14.56 8.31L14.56 8.31Q14.24 8.48 14.13 8.79L14.13 8.79L14.13 8.79Q14.07 8.99 13.87 8.97L13.87 8.97L12.61 8.82L12.61 8.82Q12.50 8.81 12.45 8.76L12.45 8.76L12.45 8.76Q12.39 8.71 12.40 8.64L12.40 8.64L12.40 8.64Q12.53 7.80 13.33 7.27L13.33 7.27L13.33 7.27Q14.14 6.73 15.33 6.73L15.33 6.73ZM15.01 12.82L15.01 12.82Q15.69 12.82 16.18 12.46L16.18 12.46L16.18 12.46Q16.67 12.10 16.67 11.54L16.67 11.54L16.67 10.89L16.67 10.89Q16.67 10.81 16.59 10.81L16.59 10.81L15.43 10.81L15.43 10.81Q14.69 10.81 14.25 11.09L14.25 11.09L14.25 11.09Q13.82 11.37 13.82 11.89L13.82 11.89L13.82 11.89Q13.82 12.33 14.15 12.58L14.15 12.58L14.15 12.58Q14.49 12.82 15.01 12.82L15.01 12.82ZM20.83 5.95L20.83 5.95Q20.37 5.95 20.08 5.66L20.08 5.66L20.08 5.66Q19.78 5.38 19.78 4.93L19.78 4.93L19.78 4.93Q19.78 4.48 20.08 4.20L20.08 4.20L20.08 4.20Q20.37 3.92 20.83 3.92L20.83 3.92L20.83 3.92Q21.29 3.92 21.58 4.20L21.58 4.20L21.58 4.20Q21.87 4.48 21.87 4.93L21.87 4.93L21.87 4.93Q21.87 5.38 21.58 5.66L21.58 5.66L21.58 5.66Q21.29 5.95 20.83 5.95L20.83 5.95ZM20.24 14L20.24 14Q20.02 14 20.02 13.78L20.02 13.78L20.02 7.07L20.02 7.07Q20.02 6.85 20.24 6.85L20.24 6.85L21.42 6.85L21.42 6.85Q21.64 6.85 21.64 7.07L21.64 7.07L21.64 13.78L21.64 13.78Q21.64 14 21.42 14L21.42 14L20.24 14ZM26.91 6.73L26.91 6.73Q28.06 6.73 28.73 7.41L28.73 7.41L28.73 7.41Q29.41 8.08 29.41 9.24L29.41 9.24L29.41 13.78L29.41 13.78Q29.41 14 29.19 14L29.19 14L28.01 14L28.01 14Q27.79 14 27.79 13.78L27.79 13.78L27.79 9.58L27.79 9.58Q27.79 8.93 27.42 8.53L27.42 8.53L27.42 8.53Q27.05 8.13 26.45 8.13L26.45 8.13L26.45 8.13Q25.84 8.13 25.47 8.53L25.47 8.53L25.47 8.53Q25.10 8.92 25.10 9.56L25.10 9.56L25.10 13.78L25.10 13.78Q25.10 14 24.88 14L24.88 14L23.70 14L23.70 14Q23.48 14 23.48 13.78L23.48 13.78L23.48 7.07L23.48 7.07Q23.48 6.85 23.70 6.85L23.70 6.85L24.88 6.85L24.88 6.85Q25.10 6.85 25.10 7.07L25.10 7.07L25.10 7.45L25.10 7.45Q25.10 7.50 25.13 7.52L25.13 7.52L25.13 7.52Q25.16 7.53 25.19 7.49L25.19 7.49L25.19 7.49Q25.77 6.73 26.91 6.73L26.91 6.73ZM37.88 5.38L37.88 5.38Q37.88 5.60 37.66 5.60L37.66 5.60L32.96 5.60L32.96 5.60Q32.87 5.60 32.87 5.68L32.87 5.68L32.87 8.27L32.87 8.27Q32.87 8.36 32.96 8.36L32.96 8.36L36.09 8.36L36.09 8.36Q36.32 8.36 36.32 8.58L36.32 8.58L36.32 9.53L36.32 9.53Q36.32 9.76 36.09 9.76L36.09 9.76L32.96 9.76L32.96 9.76Q32.87 9.76 32.87 9.84L32.87 9.84L32.87 12.52L32.87 12.52Q32.87 12.60 32.96 12.60L32.96 12.60L37.66 12.60L37.66 12.60Q37.88 12.60 37.88 12.82L37.88 12.82L37.88 13.78L37.88 13.78Q37.88 14 37.66 14L37.66 14L31.47 14L31.47 14Q31.25 14 31.25 13.78L31.25 13.78L31.25 4.42L31.25 4.42Q31.25 4.20 31.47 4.20L31.47 4.20L37.66 4.20L37.66 4.20Q37.88 4.20 37.88 4.42L37.88 4.42L37.88 5.38ZM43.72 4.42L43.72 4.42Q43.72 4.20 43.95 4.20L43.95 4.20L45.12 4.20L45.12 4.20Q45.35 4.20 45.35 4.42L45.35 4.42L45.35 13.78L45.35 13.78Q45.35 14 45.12 14L45.12 14L43.95 14L43.95 14Q43.72 14 43.72 13.78L43.72 13.78L43.72 13.41L43.72 13.41Q43.72 13.36 43.69 13.34L43.69 13.34L43.69 13.34Q43.65 13.33 43.62 13.38L43.62 13.38L43.62 13.38Q43.02 14.11 42.03 14.11L42.03 14.11L42.03 14.11Q41.05 14.11 40.35 13.59L40.35 13.59L40.35 13.59Q39.65 13.06 39.34 12.15L39.34 12.15L39.34 12.15Q39.09 11.37 39.09 10.40L39.09 10.40L39.09 10.40Q39.09 9.41 39.33 8.69L39.33 8.69L39.33 8.69Q39.63 7.77 40.32 7.25L40.32 7.25L40.32 7.25Q41.01 6.73 42.03 6.73L42.03 6.73L42.03 6.73Q43.01 6.73 43.62 7.42L43.62 7.42L43.62 7.42Q43.65 7.46 43.69 7.46L43.69 7.46L43.69 7.46Q43.72 7.45 43.72 7.39L43.72 7.39L43.72 4.42ZM43.37 12.04L43.37 12.04Q43.69 11.49 43.69 10.42L43.69 10.42L43.69 10.42Q43.69 9.32 43.34 8.75L43.34 8.75L43.34 8.75Q42.97 8.13 42.29 8.13L42.29 8.13L42.29 8.13Q41.57 8.13 41.17 8.72L41.17 8.72L41.17 8.72Q40.77 9.34 40.77 10.43L40.77 10.43L40.77 10.43Q40.77 11.44 41.10 12.03L41.10 12.03L41.10 12.03Q41.47 12.70 42.28 12.70L42.28 12.70L42.28 12.70Q42.98 12.70 43.37 12.04L43.37 12.04ZM48.02 5.95L48.02 5.95Q47.56 5.95 47.26 5.66L47.26 5.66L47.26 5.66Q46.97 5.38 46.97 4.93L46.97 4.93L46.97 4.93Q46.97 4.48 47.26 4.20L47.26 4.20L47.26 4.20Q47.56 3.92 48.02 3.92L48.02 3.92L48.02 3.92Q48.48 3.92 48.77 4.20L48.77 4.20L48.77 4.20Q49.06 4.48 49.06 4.93L49.06 4.93L49.06 4.93Q49.06 5.38 48.77 5.66L48.77 5.66L48.77 5.66Q48.48 5.95 48.02 5.95L48.02 5.95ZM47.43 14L47.43 14Q47.21 14 47.21 13.78L47.21 13.78L47.21 7.07L47.21 7.07Q47.21 6.85 47.43 6.85L47.43 6.85L48.61 6.85L48.61 6.85Q48.83 6.85 48.83 7.07L48.83 7.07L48.83 13.78L48.83 13.78Q48.83 14 48.61 14L48.61 14L47.43 14ZM54.46 7.94L54.46 7.94Q54.46 8.16 54.24 8.16L54.24 8.16L52.88 8.16L52.88 8.16Q52.79 8.16 52.79 8.25L52.79 8.25L52.79 11.55L52.79 11.55Q52.79 12.10 53.02 12.33L53.02 12.33L53.02 12.33Q53.26 12.57 53.76 12.57L53.76 12.57L54.12 12.57L54.12 12.57Q54.35 12.57 54.35 12.80L54.35 12.80L54.35 13.73L54.35 13.73Q54.35 13.96 54.12 13.97L54.12 13.97L53.45 13.99L53.45 13.99Q52.35 13.99 51.80 13.60L51.80 13.60L51.80 13.60Q51.25 13.22 51.24 12.17L51.24 12.17L51.24 8.25L51.24 8.25Q51.24 8.16 51.16 8.16L51.16 8.16L50.43 8.16L50.43 8.16Q50.20 8.16 50.20 7.94L50.20 7.94L50.20 7.07L50.20 7.07Q50.20 6.85 50.43 6.85L50.43 6.85L51.16 6.85L51.16 6.85Q51.24 6.85 51.24 6.76L51.24 6.76L51.24 5.19L51.24 5.19Q51.24 4.97 51.46 4.97L51.46 4.97L52.57 4.97L52.57 4.97Q52.79 4.97 52.79 5.19L52.79 5.19L52.79 6.76L52.79 6.76Q52.79 6.85 52.88 6.85L52.88 6.85L54.24 6.85L54.24 6.85Q54.46 6.85 54.46 7.07L54.46 7.07L54.46 7.94Z"></path></g><defs data-v-fde0c5aa=""><linearGradient data-v-fde0c5aa="" gradientTransform="rotate(25)" id="d01c6012-2ab6-4bb4-825d-6a5b05c456f4" x1="0%" y1="0%" x2="100%" y2="0%"><stop data-v-fde0c5aa="" offset="0%" stop-color="#9FC35D" stop-opacity="1"></stop><stop data-v-fde0c5aa="" offset="100%" stop-color="#9E9E9E" stop-opacity="1"></stop></linearGradient></defs><g data-v-fde0c5aa="" id="a7c21fd4-6234-42d2-ba56-990fbb746910" stroke="none" fill="url(#d01c6012-2ab6-4bb4-825d-6a5b05c456f4)" transform="matrix(0.39755719900131226,0,0,0.39755719900131226,35.36209748648662,122.3695754973397)"><path d="M69.5 11.666c-31.939 0-57.834 25.894-57.834 57.834 0 31.939 25.895 57.835 57.834 57.835 31.941 0 57.834-25.896 57.834-57.835 0-31.94-25.893-57.834-57.834-57.834zM41.947 94.647a4.77 4.77 0 1 1 0-9.54 4.77 4.77 0 0 1 0 9.54zm0-18.705a4.77 4.77 0 1 1 .001-9.541 4.77 4.77 0 0 1-.001 9.541zm0-18.663a4.77 4.77 0 1 1 .001-9.541 4.77 4.77 0 0 1-.001 9.541zm52.777 37.299H57.142a4.7 4.7 0 0 1 0-9.399h37.582a4.7 4.7 0 0 1 0 9.399zm0-18.706H57.142a4.7 4.7 0 0 1 0-9.399h37.582a4.7 4.7 0 0 1 0 9.399zm0-18.706H57.142a4.7 4.7 0 0 1 0-9.399h37.582a4.7 4.7 0 0 1 0 9.399z"></path></g><!----></svg>